<svg aria-hidden="true" style="position: absolute; width: 0; height: 0; overflow: hidden;" version="1.1" xmlns="http://www.w3.org/2000/svg" xmlns:xlink="http://www.w3.org/1999/xlink">
<defs>
<symbol id="icon-tomato-logo" viewBox="0 0 32 32">
<path d="M31.979 15.8c-0.647-12.050-6.457-13.811-11.14-13.812-1.184 0-2.295 0.113-3.233 0.2-0.008-0.547 0.014-1.134 0.1-1.783 0.001-0.009-0.002-0.017-0.003-0.026l0.003-0.013c0-0.202-0.354-0.366-0.793-0.366-0.437 0-0.791 0.164-0.791 0.366-0.12 0.653-0.284 1.297-0.49 1.926-6.18 0.040-14.32 1.090-15.562 13.098-0.901 8.715 7.043 16.61 15.98 16.61s16.399-7.443 15.929-16.2zM17.939 3.877l0.677-0.061c-0.28 0.12-0.551 0.245-0.807 0.371-0.018-0.090-0.031-0.198-0.048-0.294l0.178-0.016zM14.974 4.013c-0.070 0.156-0.138 0.306-0.204 0.444-0.152-0.147-0.314-0.286-0.484-0.415l-0.013-0.009c0.233-0.009 0.467-0.015 0.701-0.020zM27.012 25.33c-2.69 3.044-6.603 4.954-10.962 4.957h-0c-4.27 0-8.512-2.025-11.347-5.417-2.298-2.75-3.378-6.048-3.043-9.29 0.63-6.085 3.143-8.991 6.367-10.368 3.125-0.621 6.064 0.52 6.064 0.52s-6.681-1.778-9.301 7.421c3.298-5.508 8.972-3.887 10.465-5.917 0 3.925 2.662 2.020 4.008 3.789 1.731 2.273 2.365 6.346 4.356 7.148-1.961-4.512 1.25-4.336-3.262-10.391 2.377 1.582 3.61-0.020 6.855 1.407-2.777-4.864-7.22-3.458-7.22-3.458s1.809-1.765 3.726-1.716c3.238 0.81 6.217 3.537 6.665 11.883 0.182 3.409-1.014 6.758-3.37 9.431z"></path>
</symbol>
</defs>
</svg>
