<svg aria-hidden="true" style="position: absolute; width: 0; height: 0; overflow: hidden;" version="1.1" xmlns="http://www.w3.org/2000/svg" xmlns:xlink="http://www.w3.org/1999/xlink">
<defs>
<symbol id="icon-icon-twit" viewBox="0 0 38 32">
<path d="M25.664 2.752c1.984 0 3.774 0.81 5.035 2.112 1.649-0.322 3.116-0.885 4.445-1.659l-0.067 0.036c-0.544 1.586-1.614 2.873-2.998 3.682l-0.032 0.017c1.469-0.173 2.807-0.545 4.052-1.092l-0.091 0.036c-0.948 1.36-2.089 2.508-3.398 3.435l-0.043 0.029c0.011 0.288 0.019 0.576 0.019 0.864 0 8.84-6.938 19.035-19.624 19.035-3.894 0-7.52-1.112-10.571-3.008 0.544 0.064 1.094 0.096 1.643 0.094 3.232 0 6.208-1.069 8.568-2.864-3.021-0.053-5.568-1.989-6.443-4.645 0.393 0.078 0.844 0.122 1.306 0.122 0.643 0 1.265-0.086 1.857-0.247l-0.049 0.011c-3.155-0.613-5.533-3.317-5.533-6.56v-0.088c0.904 0.497 1.975 0.803 3.114 0.838l0.011 0c-1.851-1.202-3.069-3.248-3.069-5.568 0-1.227 0.341-2.376 0.934-3.36 3.402 4.043 8.483 6.707 14.216 6.989-0.114-0.455-0.179-0.978-0.179-1.516 0-0.003 0-0.006 0-0.009v0c0-3.696 3.088-6.688 6.899-6.688zM36.008 5.888v0zM25.664 0.352c-4.714 0-8.618 3.442-9.218 7.89-3.856-0.774-7.363-2.816-9.882-5.81-0.443-0.525-1.102-0.856-1.837-0.856-0.868 0-1.628 0.461-2.050 1.151l-0.006 0.011c-0.804 1.312-1.279 2.9-1.279 4.6 0 1.121 0.207 2.193 0.585 3.181l-0.020-0.061c-0.392 0.437-0.619 1.008-0.619 1.61v0.086c0 2.35 0.93 4.531 2.474 6.166-0.090 0.413-0.069 0.843 0.066 1.256 0.551 1.637 1.504 3.017 2.745 4.067l0.013 0.011c-0.777 0.18-1.669 0.283-2.586 0.283-0.485 0-0.964-0.029-1.434-0.085l0.057 0.006c-0.086-0.011-0.186-0.017-0.287-0.017-1.325 0-2.4 1.075-2.4 2.4 0 0.857 0.449 1.609 1.125 2.034l0.010 0.006c3.355 2.115 7.436 3.37 11.811 3.37 0.010 0 0.020 0 0.031-0h-0.002c13.65 0 21.862-10.686 22.021-21.125 1.12-0.928 2.11-2 2.942-3.194 0.303-0.397 0.485-0.901 0.485-1.446 0-0.812-0.404-1.53-1.021-1.965l-0.008-0.005c0.060-0.201 0.095-0.431 0.095-0.67 0-1.325-1.075-2.4-2.4-2.4-0.44 0-0.853 0.119-1.208 0.325l0.011-0.006c-0.727 0.427-1.568 0.795-2.453 1.059l-0.082 0.021c-1.563-1.182-3.538-1.893-5.68-1.894h-0z"></path>
</symbol>
<symbol id="icon-icon-youtube" viewBox="0 0 43 32">
<path d="M39.198 2.571c-1.156-0.832-4.379-1.938-17.876-1.938-14.466 0-16.612 1.269-17.3 1.685-3.668 2.201-4.014 11.95-4.046 13.927 0.044 2.612 0.466 11.296 4.043 13.445 0.688 0.414 2.821 1.676 17.303 1.676 13.506 0 16.724-1.1 17.876-1.929 3.124-2.247 3.483-9.988 3.492-13.227-0.009-2.606-0.283-11.328-3.493-13.641zM37.639 27.275c-0.462 0.334-3.132 1.426-16.316 1.426-12.747 0-15.422-0.99-15.929-1.294-1.285-0.772-2.644-4.871-2.75-11.168 0.107-6.284 1.483-10.871 2.754-11.634 0.507-0.306 3.191-1.303 15.925-1.303 13.173 0 15.849 1.099 16.316 1.435 1.143 0.821 2.364 5.152 2.382 11.484-0.018 6.43-1.248 10.238-2.382 11.054zM30.020 14.951l-12-7.36c-0.196-0.119-0.433-0.19-0.686-0.19-0.734 0-1.33 0.594-1.333 1.328v14.727c0 0.736 0.597 1.333 1.333 1.333 0.254 0 0.492-0.071 0.694-0.195l-0.006 0.003 11.996-7.364c0.389-0.237 0.645-0.66 0.645-1.142s-0.256-0.905-0.64-1.139l-0.006-0.003zM18.667 21.095v-10.002l8.084 5.001-8.084 5.003z"></path>
</symbol>
<symbol id="icon-icon-inst" viewBox="0 0 32 32">
<path d="M15.969 0.125c4.312 0 4.843 0.031 6.531 0.093 1.656 0.063 2.813 0.344 3.844 0.751 1.102 0.41 2.041 1.027 2.812 1.811l0.001 0.001c0.785 0.772 1.402 1.712 1.795 2.761l0.017 0.053c0.405 1.031 0.687 2.187 0.749 3.843 0.063 1.688 0.093 2.219 0.093 6.532 0 4.312-0.031 4.843-0.093 6.531-0.063 1.656-0.344 2.813-0.749 3.844-0.41 1.102-1.028 2.041-1.812 2.812l-0.001 0.001c-0.772 0.785-1.712 1.402-2.761 1.795l-0.053 0.017c-1.031 0.405-2.187 0.687-3.843 0.749-1.688 0.063-2.219 0.093-6.531 0.093-4.313 0-4.844-0.031-6.532-0.093-1.656-0.063-2.813-0.344-3.844-0.749-1.102-0.41-2.041-1.028-2.812-1.812l-0.001-0.001c-0.784-0.772-1.401-1.712-1.793-2.761l-0.017-0.053c-0.407-1.031-0.688-2.187-0.751-3.843-0.063-1.688-0.093-2.219-0.093-6.531 0-4.313 0.031-4.844 0.093-6.532 0.063-1.656 0.344-2.813 0.751-3.844 0.41-1.102 1.027-2.041 1.811-2.812l0.001-0.001c0.772-0.784 1.712-1.4 2.761-1.792l0.053-0.017c1.029-0.408 2.185-0.691 3.841-0.752 1.688-0.063 2.219-0.093 6.532-0.093zM15.969 2.188c-4.5 0-5.032 0.031-6.781 0.093-1.627 0.063-2.532 0.375-3.125 0.593-1.532 0.625-2.563 1.656-3.187 3.187-0.22 0.595-0.533 1.501-0.595 3.127-0.063 1.749-0.093 2.28-0.093 6.781 0 4.5 0.031 5.031 0.093 6.78 0.063 1.627 0.375 2.532 0.593 3.125 0.625 1.532 1.656 2.563 3.187 3.187 0.595 0.22 1.501 0.533 3.127 0.595 1.749 0.063 2.28 0.093 6.781 0.093 4.5 0 5.031-0.031 6.78-0.093 1.627-0.063 2.532-0.375 3.125-0.593 1.532-0.625 2.563-1.656 3.187-3.187 0.22-0.595 0.533-1.501 0.595-3.127 0.063-1.749 0.093-2.28 0.093-6.78s-0.031-5.032-0.093-6.781c-0.063-1.627-0.375-2.532-0.593-3.125-0.625-1.532-1.656-2.563-3.187-3.187-0.595-0.22-1.501-0.533-3.127-0.595-1.749-0.063-2.28-0.093-6.78-0.093zM15.969 22.312c3.502-0.003 6.34-2.841 6.343-6.342v-0c-0.002-3.502-2.84-6.341-6.342-6.344h-0c-3.503 0.002-6.342 2.841-6.344 6.344v0c0.003 3.502 2.842 6.34 6.344 6.343h0zM15.969 7.844c0.004 0 0.010 0 0.015 0 4.479 0 8.109 3.631 8.109 8.109 0 0.006 0 0.011-0 0.017v-0.001c0 0.004 0 0.010 0 0.015 0 4.479-3.631 8.109-8.109 8.109-0.005 0-0.010 0-0.015 0h0.001c-0.005 0-0.010 0-0.016 0-4.479 0-8.109-3.631-8.109-8.109 0-0.005 0-0.010 0-0.015v0.001c0-0.005-0-0.010-0-0.016 0-4.479 3.631-8.109 8.109-8.109 0.006 0 0.011 0 0.017 0h-0.001zM26.343 7.531c0 1.063-0.873 1.876-1.936 1.876s-1.876-0.813-1.876-1.876c0-1.061 0.813-1.937 1.876-1.937 1.068 0.005 1.932 0.87 1.937 1.937v0z"></path>
</symbol>
<symbol id="icon-icon-tumblr" viewBox="0 0 21 32">
<path d="M11.167 1.992v6.996h7.011v3h-6.979l-0.011 8.703c0 1.619 0.084 2.657 0.255 3.117 0.267 0.727 1.237 1.656 3.037 1.656 1.396 0 3.28-0.42 4.693-1.476v4.667c-1.179 0.56-2.273 0.787-3.227 1.013-0.956 0.227-1.991 0.34-3.099 0.34-1.236 0-4.803-0.035-6.267-3.763-0.263-0.672-0.395-1.645-0.395-2.921v-11.332h-4.027l0.020-3.067c1.333 0 5.332-0.809 5.332-6.933h3.655zM11.167-0.008h-3.655c-1.105 0-2 0.895-2 2v0c0 4.577-2.552 4.933-3.333 4.933 0 0 0 0-0 0-1.101 0-1.995 0.89-2 1.99v0.001l-0.019 3.067c0 0.002 0 0.004 0 0.007 0 1.105 0.895 2.001 2 2.003h2.027v9.332c0 1.543 0.175 2.739 0.533 3.653 0.901 2.293 3.044 5.031 8.128 5.031 1.259 0 2.456-0.132 3.559-0.392l0.22-0.053c0.933-0.219 2.125-0.493 3.407-1.103 0.679-0.329 1.139-1.013 1.139-1.804 0-0 0-0.001 0-0.001v0-4.667c-0.001-1.104-0.896-1.998-2-1.998-0.451 0-0.868 0.149-1.202 0.402l0.005-0.004c-1.191 0.891-2.715 1.077-3.493 1.077-0.8 0-1.099-0.291-1.164-0.368-0.033-0.156-0.129-0.743-0.129-2.405l0.008-6.704h4.981c1.105 0 2-0.895 2-2v0-3.001c0-1.105-0.895-2-2-2v0h-5.011v-4.995c0-1.105-0.895-2-2-2v0z"></path>
</symbol>
</defs>
</svg>
