<svg width="16" height="24" viewBox="0 0 16 24" fill="none" xmlns="http://www.w3.org/2000/svg">
<path d="M8.37543 1.49403L8.37538 6.74101H13.6329V8.99027H8.39863L8.39113 15.5183C8.39113 16.7318 8.45413 17.5107 8.58238 17.8561C8.78226 18.4009 9.50976 19.0984 10.8601 19.0984C11.9075 19.0984 13.3205 18.7834 14.3795 17.9911V21.4906C13.4964 21.9117 12.6751 22.0815 11.9596 22.2514C11.2434 22.4205 10.4675 22.5057 9.63581 22.5057C8.70916 22.5057 6.03428 22.4802 4.93666 19.6838C4.73904 19.1806 4.64006 18.4497 4.64006 17.4931V8.99406H1.62019L1.63481 6.69419C2.63456 6.69419 5.63381 6.08704 5.63381 1.49405L8.37543 1.49403ZM8.37538 -0.00599561L5.63376 -0.00604248C4.80539 -0.00604248 4.13376 0.665583 4.13376 1.49396C4.13376 4.92746 2.22051 5.19409 1.63476 5.19409C0.809391 5.19409 0.138516 5.86122 0.134766 6.68659L0.120141 8.98647C0.117891 9.38547 0.275391 9.76872 0.556641 10.0522C0.69611 10.1922 0.861848 10.3033 1.04435 10.3791C1.22685 10.4549 1.42252 10.494 1.62014 10.494H3.14001V17.493C3.14001 18.6502 3.27126 19.5469 3.54051 20.2324C4.21661 21.9536 5.82276 24.006 9.63576 24.006C10.58 24.006 11.4777 23.907 12.3046 23.7116L12.47 23.6726C13.1701 23.508 14.0645 23.3029 15.0249 22.845C15.2807 22.7231 15.4968 22.5312 15.6481 22.2916C15.7993 22.0519 15.8796 21.7743 15.8795 21.4909V17.9914C15.8795 17.713 15.802 17.4401 15.6557 17.2033C15.5094 16.9665 15.3 16.775 15.0511 16.6504C14.8389 16.5436 14.6086 16.4914 14.3795 16.4914C14.0556 16.4914 13.7403 16.5963 13.481 16.7903C12.5881 17.4589 11.4455 17.5988 10.8605 17.5988C10.2605 17.5988 10.0374 17.3813 9.98823 17.3236C9.96276 17.2058 9.89151 16.7663 9.89151 15.5187L9.89673 10.4907H13.6329C14.4612 10.4907 15.1329 9.81902 15.1329 8.99067V6.74137C15.1329 5.91299 14.4612 5.24136 13.6329 5.24136H9.87536V1.49401C9.87536 0.66563 9.20374 -0.00599561 8.37536 -0.00599561H8.37538Z" fill="#F3F3F3"/>
</svg>
