<svg width="24" height="20" viewBox="0 0 24 20" fill="none" xmlns="http://www.w3.org/2000/svg">
<path d="M16.0407 1.71927C17.28 1.71927 18.399 2.22636 19.1872 3.04048C20.1678 2.85073 21.0922 2.50498 21.9229 2.02611C21.6015 3.00188 20.9179 3.82048 20.0288 4.33836C20.8988 4.23598 21.7316 4.01248 22.5045 3.67836C21.9251 4.51611 21.1958 5.25373 20.3535 5.84323C20.3614 6.02211 20.3659 6.20286 20.3659 6.38283C20.3659 11.9077 16.0298 18.28 8.10078 18.28C5.66703 18.28 3.40015 17.5856 1.49367 16.3998C1.83474 16.4395 2.17782 16.4593 2.52117 16.459C4.54055 16.459 6.40015 15.7912 7.87578 14.6684C5.9884 14.6362 4.3954 13.4261 3.84903 11.7659C4.11662 11.8161 4.38828 11.8413 4.66053 11.8413C5.0524 11.8413 5.43415 11.7907 5.7949 11.6947C3.82315 11.3118 2.33703 9.62168 2.33703 7.59476V7.54116C2.91865 7.85466 3.58278 8.04291 4.2904 8.06466C3.13315 7.31389 2.37228 6.03591 2.37228 4.58501C2.37228 3.81814 2.5853 3.09964 2.95617 2.48426C5.08168 5.01251 8.25793 6.67751 11.8411 6.85264C11.7672 6.54736 11.7289 6.22489 11.7289 5.90051C11.7289 3.59089 13.659 1.71927 16.0407 1.71927ZM22.5045 3.67913H22.5082H22.5045ZM16.0406 0.21936C13.0953 0.21936 10.6553 2.37113 10.2795 5.15138C7.86975 4.66726 5.67825 3.39151 4.10363 1.51988C3.96286 1.35243 3.78718 1.2178 3.58888 1.12543C3.39058 1.03306 3.17448 0.985182 2.95573 0.985157C2.91644 0.985166 2.87717 0.986667 2.838 0.989657C2.60024 1.0087 2.37042 1.08406 2.16756 1.20953C1.9647 1.33499 1.79462 1.50694 1.67138 1.71116C1.14843 2.57886 0.872126 3.5728 0.872229 4.5859C0.872229 5.26203 0.993706 5.92053 1.22398 6.53628C0.978729 6.8089 0.837354 7.16553 0.837354 7.54203V7.59565C0.837354 9.06492 1.41823 10.4284 2.38273 11.4503C2.32723 11.7075 2.3396 11.9768 2.42435 12.2348C2.757 13.2469 3.36263 14.1191 4.14788 14.7836C3.6206 14.901 3.0765 14.9602 2.5211 14.9602C2.22748 14.9602 1.94173 14.9441 1.67135 14.9111C1.61135 14.9036 1.5521 14.901 1.49248 14.901C0.862479 14.901 0.290604 15.2981 0.0783537 15.9037C-0.154521 16.5675 0.103877 17.3032 0.700854 17.6748C2.91638 19.0534 5.47536 19.7812 8.10036 19.7812C16.6324 19.7812 21.7646 13.1021 21.8644 6.57786C22.5645 5.99862 23.183 5.32728 23.703 4.58211C23.9005 4.32281 24.0072 4.00578 24.0067 3.67986C24.0067 3.16948 23.7514 2.71836 23.3625 2.44721C23.5309 1.87009 23.3389 1.24534 22.8701 0.863586C22.5964 0.640837 22.2607 0.527587 21.9232 0.527587C21.6602 0.52734 21.4017 0.596547 21.174 0.728211C20.6782 1.01398 20.148 1.24011 19.5896 1.40288C18.5793 0.642758 17.3268 0.219384 16.0406 0.21936Z" fill="#F3F3F3"/>
</svg>
