<svg width="24" height="18" viewBox="0 0 24 18" fill="none" xmlns="http://www.w3.org/2000/svg">
<path d="M22.0485 1.44601C21.3983 0.978012 19.5863 0.356262 11.9937 0.356262C3.8573 0.356262 2.65017 1.07026 2.26278 1.30389C0.201031 2.54249 0.00528121 8.02611 -0.0126953 9.13798C0.0120546 10.6065 0.249429 15.4924 2.2613 16.701C2.64795 16.9339 3.8483 17.6437 11.9937 17.6437C19.5911 17.6437 21.4009 17.025 22.0485 16.5589C23.8058 15.2948 24.0079 10.9414 24.0127 9.1189C24.0082 7.6534 23.8545 2.74688 22.0485 1.44601ZM21.1725 15.3416C20.9111 15.5299 19.4103 16.1437 11.9936 16.1437C4.82325 16.1437 3.31875 15.5872 3.0345 15.4158C2.31075 14.9816 1.54688 12.6765 1.4869 9.13385C1.54615 5.59911 2.32053 3.01874 3.03605 2.58974C3.32105 2.41761 4.83115 1.85661 11.9936 1.85661C19.4043 1.85661 20.9092 2.47464 21.1725 2.66364C21.8149 3.12638 22.5026 5.56238 22.5127 9.12375C22.5026 12.741 21.8104 14.8826 21.1725 15.3416ZM16.8847 8.41008L10.1363 4.26894C10.0225 4.20034 9.8926 4.16318 9.75977 4.16127C9.62693 4.15936 9.49597 4.19276 9.38028 4.25806C9.26449 4.32337 9.16812 4.41827 9.10105 4.53305C9.03397 4.64783 8.9986 4.77837 8.99854 4.91131V13.1951C8.99863 13.3939 9.07768 13.5846 9.21831 13.7253C9.35894 13.8659 9.54965 13.945 9.74853 13.9451C9.88504 13.9451 10.019 13.9079 10.1359 13.8374L16.8844 9.69481C17.1094 9.55871 17.247 9.31535 17.247 9.05246C17.247 8.78956 17.1097 8.54546 16.8847 8.41008ZM10.4989 11.8664V6.23916L15.0458 9.05241L10.4989 11.8664Z" fill="#F3F3F3"/>
</svg>
